<svg id="logo" xmlns="http://www.w3.org/2000/svg" width="196.192" height="24.427" viewBox="0 0 196.192 24.427">
  <g id="Group" transform="translate(38)">
    <path id="Shape" d="M13.351,0H8.163c-1.569,0-4.3.695-5.517,1.905L5.55,3.2a5.375,5.375,0,0,1,3.7-1.533h3.018a5.377,5.377,0,0,1,3.7,1.533l2.9-1.291C17.654.695,14.92,0,13.351,0Z" fill="#dc6671"/>
    <path id="Shape-2" data-name="Shape" d="M12.266,1.664H9.248A5.377,5.377,0,0,0,5.55,3.2L8.415,4.471a2.158,2.158,0,0,1,1.918-1.143h.847A2.158,2.158,0,0,1,13.1,4.471L15.964,3.2A5.375,5.375,0,0,0,12.266,1.664Z" fill="#7b2232"/>
    <path id="Shape-3" data-name="Shape" d="M18.865,1.906,15.964,3.2h0a1.712,1.712,0,0,1,.444,1.1v20.12h3.075V3.188A1.823,1.823,0,0,0,18.865,1.906Z" fill="#a90f2d"/>
    <path id="Shape-4" data-name="Shape" d="M15.963,3.2,13.1,4.472l-.006,0a2.006,2.006,0,0,1,.24.935V24.419h3.075V4.3A1.715,1.715,0,0,0,15.963,3.2Z" fill="#ed223d"/>
    <path id="Shape-5" data-name="Shape" d="M8.415,4.472,5.551,3.2a1.706,1.706,0,0,0-.443,1.1V24.42H8.183V5.409a2,2,0,0,1,.242-.94Z" fill="#a90f2d"/>
    <path id="Shape-6" data-name="Shape" d="M5.55,3.2l-2.9-1.291a1.823,1.823,0,0,0-.616,1.281V24.419H5.107V4.3a1.708,1.708,0,0,1,.444-1.1Z" fill="#ed223d"/>
    <path id="Shape-7" data-name="Shape" d="M16.407,15.748a4.333,4.333,0,0,0-.58-.585,3.626,3.626,0,0,0-1.622-.482,2.072,2.072,0,0,0-1.756.654,1.481,1.481,0,0,0-.431.87,1.406,1.406,0,0,1,1,.113c.3.206.3.844.3.844V24.42h3.091Z" fill="#00adee"/>
    <path id="Shape-8" data-name="Shape" d="M16.407,15.748a4.333,4.333,0,0,1,.58-.585,3.626,3.626,0,0,1,1.622-.482,2.072,2.072,0,0,1,1.756.654,1.481,1.481,0,0,1,.431.87,1.406,1.406,0,0,0-1,.113c-.3.206-.3.844-.3.844V24.42H16.407Z" fill="#007dc4"/>
    <path id="Shape-9" data-name="Shape" d="M16.407,12.881A2.113,2.113,0,0,0,17,14.135a2.274,2.274,0,0,0,1.3.573,2.515,2.515,0,0,0-1.3.573,2.26,2.26,0,0,0-.593,1.254,2.2,2.2,0,0,0-.593-1.254,2.435,2.435,0,0,0-1.3-.573,2.3,2.3,0,0,0,1.3-.573A2.284,2.284,0,0,0,16.407,12.881Z" fill="#fff100" fill-rule="evenodd"/>
    <g id="Shape-10" data-name="Shape" transform="translate(0 12.5)">
      <path id="Path_1" data-name="Path 1" d="M5.09,3.248a4.333,4.333,0,0,0-.58-.585,3.626,3.626,0,0,0-1.622-.482,2.072,2.072,0,0,0-1.756.654A1.481,1.481,0,0,0,.7,3.7a1.406,1.406,0,0,1,1,.112c.3.206.3.844.3.844V11.92H5.09Z" fill="#00adee"/>
      <path id="Path_2" data-name="Path 2" d="M5.09,3.248a4.333,4.333,0,0,1,.58-.585,3.626,3.626,0,0,1,1.622-.482,2.072,2.072,0,0,1,1.756.654,1.481,1.481,0,0,1,.431.87,1.406,1.406,0,0,0-1,.112c-.3.206-.3.844-.3.844V11.92H5.09Z" fill="#007dc4"/>
      <path id="Path_3" data-name="Path 3" d="M5.09.381a2.113,2.113,0,0,0,.593,1.254,2.274,2.274,0,0,0,1.3.573,2.515,2.515,0,0,0-1.3.573A2.26,2.26,0,0,0,5.09,4.036,2.2,2.2,0,0,0,4.5,2.782a2.435,2.435,0,0,0-1.3-.573,2.3,2.3,0,0,0,1.3-.573A2.284,2.284,0,0,0,5.09.381Z" fill="#fff100" fill-rule="evenodd"/>
    </g>
    <g id="Shape-11" data-name="Shape" transform="translate(4.846 17.969)">
      <path id="Path_4" data-name="Path 4" d="M11.544,1.763H.244L3.322.118H8.469Z" fill="#34c1d6"/>
      <path id="Path_5" data-name="Path 5" d="M11.544,1.763H.244L3.322,3.407H8.469Z" fill="#2152a3"/>
    </g>
    <path id="Shape-12" data-name="Shape" d="M16.406,21.782,17.951,23.1,19.5,24.42H13.315L14.86,23.1Z" fill="#2152a3"/>
    <path id="Shape-13" data-name="Shape" d="M5.09,21.782,6.636,23.1,8.181,24.42H2L3.545,23.1Z" fill="#2152a3"/>
  </g>
  <g id="Group-2" data-name="Group" transform="translate(21)">
    <path id="Rectangle-path" d="M1.8,0H4.806V24.42H1.8Z" fill="#ed223d"/>
    <path id="Rectangle-path-2" data-name="Rectangle-path" d="M4.806,0H7.811V24.42H4.806Z" fill="#a90f2d"/>
    <path id="Shape-14" data-name="Shape" d="M4.821,2.637,3.31,1.319,1.8,0H7.843L6.332,1.319Z" fill="#dc6671"/>
    <g id="Shape-15" data-name="Shape" transform="translate(0 12.5)">
      <path id="Path_6" data-name="Path 6" d="M4.789,3.248a4.287,4.287,0,0,0-.567-.585,3.488,3.488,0,0,0-1.585-.482,2,2,0,0,0-1.716.654A1.5,1.5,0,0,0,.5,3.7a1.346,1.346,0,0,1,.974.112c.294.206.294.844.294.844V11.92H4.789Z" fill="#00adee"/>
      <path id="Path_7" data-name="Path 7" d="M4.789,3.248a4.287,4.287,0,0,1,.567-.585,3.488,3.488,0,0,1,1.585-.482,2,2,0,0,1,1.716.654,1.5,1.5,0,0,1,.421.87,1.346,1.346,0,0,0-.974.112c-.294.206-.294.844-.294.844V11.92H4.789Z" fill="#007dc4"/>
      <path id="Path_8" data-name="Path 8" d="M4.789.381a2.138,2.138,0,0,0,.579,1.254,2.2,2.2,0,0,0,1.267.573,2.429,2.429,0,0,0-1.267.573,2.286,2.286,0,0,0-.579,1.254,2.229,2.229,0,0,0-.579-1.254,2.351,2.351,0,0,0-1.267-.573,2.223,2.223,0,0,0,1.267-.573A2.31,2.31,0,0,0,4.789.381Z" fill="#fff100" fill-rule="evenodd"/>
    </g>
    <path id="Shape-16" data-name="Shape" d="M7.81,21.13,4.789,22.774h9.892V21.13Z" fill="#34c1d6"/>
    <path id="Shape-17" data-name="Shape" d="M4.789,22.774,1.767,24.42H14.681V22.774Z" fill="#2152a3"/>
    <path id="Shape-18" data-name="Shape" d="M13.215,22.774l.733-.822.733-.823v3.29l-.733-.823Z" fill="#0073bc"/>
  </g>
  <g id="Group-3" data-name="Group" transform="translate(62)">
    <path id="Shape-19" data-name="Shape" d="M11.25,16.669h3.014V13.724a1.732,1.732,0,0,0-.435-1.1L11.022,13.9l-.006,0a2.038,2.038,0,0,1,.234.935Z" fill="#ed223d"/>
    <path id="Shape-20" data-name="Shape" d="M14.264,16.669h3.014V12.613a1.838,1.838,0,0,0-.6-1.281L13.83,12.623h0a1.73,1.73,0,0,1,.435,1.1v2.945Z" fill="#a90f2d"/>
    <path id="Shape-21" data-name="Shape" d="M14.264,14.045l1.507,1.312,1.507,1.312H11.25l1.507-1.312Z" fill="#7b2232"/>
    <g id="Shape-22" data-name="Shape">
      <path id="Path_9" data-name="Path 9" d="M11.269,0H6.184C4.646,0,1.967.695.776,1.905L3.623,3.2A5.216,5.216,0,0,1,7.248,1.665h2.958A5.217,5.217,0,0,1,13.83,3.2l2.847-1.291C15.486.695,12.806,0,11.269,0Z" fill="#dc6671"/>
      <path id="Path_10" data-name="Path 10" d="M10.205,1.664H7.248A5.217,5.217,0,0,0,3.623,3.2L6.431,4.471a2.11,2.11,0,0,1,1.88-1.143h.83a2.11,2.11,0,0,1,1.88,1.143L13.83,3.2A5.217,5.217,0,0,0,10.205,1.664Z" fill="#7b2232"/>
      <path id="Path_11" data-name="Path 11" d="M6.431,4.472,3.623,3.2a1.724,1.724,0,0,0-.435,1.1V8.411H6.2v-3a2.03,2.03,0,0,1,.238-.94Z" fill="#a90f2d"/>
      <path id="Path_12" data-name="Path 12" d="M3.623,3.2.779,1.906a1.838,1.838,0,0,0-.6,1.281V8.41H3.189V4.3a1.727,1.727,0,0,1,.435-1.1Z" fill="#ed223d"/>
      <path id="Path_13" data-name="Path 13" d="M11.25,7.243h3.014V4.3a1.732,1.732,0,0,0-.435-1.1L11.022,4.471l-.006,0a2.038,2.038,0,0,1,.234.935Z" fill="#ed223d"/>
      <path id="Path_14" data-name="Path 14" d="M14.264,7.243h3.014V3.188a1.838,1.838,0,0,0-.6-1.281L13.83,3.2h0a1.73,1.73,0,0,1,.435,1.1V7.243Z" fill="#a90f2d"/>
      <path id="Path_15" data-name="Path 15" d="M14.264,4.62l1.507,1.312,1.507,1.312H11.25l1.507-1.312Z" fill="#7b2232"/>
    </g>
    <path id="Shape-23" data-name="Shape" d="M6.431,8.284,3.623,9.559a1.724,1.724,0,0,1-.435-1.1V4.345H6.2v3a2.03,2.03,0,0,0,.238.94Z" fill="#a90f2d"/>
    <path id="Shape-24" data-name="Shape" d="M3.623,9.559.779,10.849a1.838,1.838,0,0,1-.6-1.281V4.345H3.189V8.457a1.727,1.727,0,0,0,.435,1.1Z" fill="#ed223d"/>
    <path id="Shape-25" data-name="Shape" d="M11.269,9.426H8.3A2.11,2.11,0,0,1,6.431,8.284L3.623,9.559a5.216,5.216,0,0,0,3.625,1.533h2.958a5.217,5.217,0,0,1,3.625,1.533l2.847-1.292C15.486,10.12,12.806,9.426,11.269,9.426Z" fill="#7b2232"/>
    <path id="Shape-26" data-name="Shape" d="M10.205,11.091H7.241A5.217,5.217,0,0,1,3.623,9.559L.776,10.852c1.191,1.211,3.87,1.905,5.408,1.905H9.141a2.11,2.11,0,0,1,1.88,1.143l2.809-1.274A5.209,5.209,0,0,0,10.205,11.091Z" fill="#dc6671"/>
    <path id="Shape-27" data-name="Shape" d="M14.246,20.12v-.375H14.23V15.762a4.292,4.292,0,0,1,.568-.585,3.5,3.5,0,0,1,1.59-.482,2.006,2.006,0,0,1,1.721.654,1.5,1.5,0,0,1,.422.87,1.353,1.353,0,0,0-.977.112c-.295.206-.295.844-.295.844v4.056a1.838,1.838,0,0,1-.6,1.281l-2.844-1.291h0A1.725,1.725,0,0,0,14.246,20.12Z" fill="#00adee"/>
    <path id="Shape-28" data-name="Shape" d="M10.381,15.345a2,2,0,0,1,1.721-.654,3.511,3.511,0,0,1,1.59.482,4.248,4.248,0,0,1,.568.585v3.983h-.015v.379a1.732,1.732,0,0,1-.435,1.1L11,19.948l-.009,0a2.043,2.043,0,0,0,.237-.926V17.171s0-.637-.294-.844a1.353,1.353,0,0,0-.977-.112A1.491,1.491,0,0,1,10.381,15.345Z" fill="#007dc4"/>
    <path id="Shape-29" data-name="Shape" d="M12.865,21.988a3.53,3.53,0,0,0,.948-.766L11,19.948a2.11,2.11,0,0,1-1.88,1.143H8.311a2.11,2.11,0,0,1-1.88-1.143L3.622,21.222a5.216,5.216,0,0,0,3.625,1.533h7.009Z" fill="#34c1d6"/>
    <path id="Shape-30" data-name="Shape" d="M13.812,21.222a5.216,5.216,0,0,1-3.625,1.533H7.247a5.217,5.217,0,0,1-3.625-1.533L.775,22.514c1.191,1.211,3.87,1.905,5.408,1.905h5.068c1.537,0,4.216-.695,5.408-1.905Z" fill="#2152a3"/>
    <path id="Shape-31" data-name="Shape" d="M14.264,12.893a2.135,2.135,0,0,0,.581,1.254,2.2,2.2,0,0,0,1.271.573,2.439,2.439,0,0,0-1.271.573,2.283,2.283,0,0,0-.581,1.254,2.226,2.226,0,0,0-.581-1.254,2.361,2.361,0,0,0-1.271-.573,2.233,2.233,0,0,0,1.271-.573A2.307,2.307,0,0,0,14.264,12.893Z" fill="#fff100" fill-rule="evenodd"/>
    <path id="Shape-32" data-name="Shape" d="M3.189,19.745H3.2V16.977H.161c.013.115.014.2.014.2v4.056a1.838,1.838,0,0,0,.6,1.281l2.844-1.291h0a1.727,1.727,0,0,1-.435-1.1Z" fill="#00adee"/>
    <path id="Shape-33" data-name="Shape" d="M6.2,17.171s0-.082.013-.194H3.174v2.764h.015v.379a1.732,1.732,0,0,0,.435,1.1l2.807-1.274.009,0a2.043,2.043,0,0,1-.237-.926V17.171Z" fill="#007dc4"/>
    <path id="Shape-34" data-name="Shape" d="M3.189,19.614,1.674,18.3.159,16.977H6.219L4.7,18.3Z" fill="#34c1d6"/>
  </g>
  <g id="Group-4" data-name="Group" transform="translate(83)">
    <path id="Shape-35" data-name="Shape" d="M11.487,16.669H14.5V13.724a1.732,1.732,0,0,0-.435-1.1L11.259,13.9l-.006,0a2.038,2.038,0,0,1,.235.935v1.834Z" fill="#ed223d"/>
    <path id="Shape-36" data-name="Shape" d="M14.5,16.669h3.014V12.613a1.838,1.838,0,0,0-.6-1.281l-2.844,1.291h0a1.727,1.727,0,0,1,.435,1.1Z" fill="#a90f2d"/>
    <g id="Shape-37" data-name="Shape">
      <path id="Path_16" data-name="Path 16" d="M11.506,0H6.42C4.883,0,2.2.695,1.013,1.905L3.859,3.2A5.216,5.216,0,0,1,7.484,1.665h2.958A5.217,5.217,0,0,1,14.067,3.2l2.847-1.291C15.722.695,13.043,0,11.506,0Z" fill="#dc6671"/>
      <path id="Path_17" data-name="Path 17" d="M10.442,1.664H7.484A5.217,5.217,0,0,0,3.859,3.2L6.668,4.471a2.11,2.11,0,0,1,1.88-1.143h.83a2.11,2.11,0,0,1,1.88,1.143L14.067,3.2A5.217,5.217,0,0,0,10.442,1.664Z" fill="#7b2232"/>
      <path id="Path_18" data-name="Path 18" d="M6.667,4.472,3.86,3.2a1.724,1.724,0,0,0-.435,1.1V8.411H6.439v-3a2.03,2.03,0,0,1,.237-.94Z" fill="#a90f2d"/>
      <path id="Path_19" data-name="Path 19" d="M3.859,3.2,1.016,1.906a1.838,1.838,0,0,0-.6,1.281V8.41H3.426V4.3a1.727,1.727,0,0,1,.435-1.1Z" fill="#ed223d"/>
      <path id="Path_20" data-name="Path 20" d="M11.487,7.243H14.5V4.3a1.732,1.732,0,0,0-.435-1.1L11.259,4.471l-.006,0a2.038,2.038,0,0,1,.235.935V7.243Z" fill="#ed223d"/>
      <path id="Path_21" data-name="Path 21" d="M14.5,7.243h3.014V3.188a1.838,1.838,0,0,0-.6-1.281L14.067,3.2h0A1.727,1.727,0,0,1,14.5,4.3Z" fill="#a90f2d"/>
      <path id="Path_22" data-name="Path 22" d="M14.5,4.62l1.507,1.312,1.507,1.312H11.487l1.507-1.312Z" fill="#7b2232"/>
    </g>
    <path id="Shape-38" data-name="Shape" d="M6.667,8.284,3.86,9.559a1.724,1.724,0,0,1-.435-1.1V4.345H6.439v3a2.03,2.03,0,0,0,.237.94Z" fill="#a90f2d"/>
    <path id="Shape-39" data-name="Shape" d="M3.859,9.559,1.016,10.849a1.838,1.838,0,0,1-.6-1.281V4.345H3.426V8.457a1.727,1.727,0,0,0,.435,1.1Z" fill="#ed223d"/>
    <path id="Shape-40" data-name="Shape" d="M11.506,9.426H8.533A2.11,2.11,0,0,1,6.667,8.284L3.859,9.559a5.216,5.216,0,0,0,3.625,1.533h2.958a5.217,5.217,0,0,1,3.625,1.533l2.847-1.292C15.722,10.12,13.043,9.426,11.506,9.426Z" fill="#7b2232"/>
    <path id="Shape-41" data-name="Shape" d="M10.442,11.091H7.478A5.214,5.214,0,0,1,3.86,9.559L1.013,10.852c1.191,1.211,3.87,1.905,5.408,1.905H9.379a2.11,2.11,0,0,1,1.88,1.143l2.809-1.274A5.212,5.212,0,0,0,10.442,11.091Z" fill="#dc6671"/>
    <g id="Shape-42" data-name="Shape" transform="translate(0 12.5)">
      <path id="Path_23" data-name="Path 23" d="M14.5,1.545l1.507,1.312,1.507,1.312H11.487l1.507-1.312Z" fill="#7b2232"/>
      <path id="Path_24" data-name="Path 24" d="M14.483,7.62V7.245h-.016V3.263a4.292,4.292,0,0,1,.568-.585,3.5,3.5,0,0,1,1.59-.482,2.006,2.006,0,0,1,1.721.654,1.5,1.5,0,0,1,.422.87,1.353,1.353,0,0,0-.977.112c-.294.206-.294.844-.294.844V8.731a1.838,1.838,0,0,1-.6,1.281L14.049,8.722h0A1.725,1.725,0,0,0,14.483,7.62Z" fill="#00adee"/>
      <path id="Path_25" data-name="Path 25" d="M10.618,2.845a2,2,0,0,1,1.721-.654,3.511,3.511,0,0,1,1.59.482,4.248,4.248,0,0,1,.568.585V7.241h-.015V7.62a1.732,1.732,0,0,1-.435,1.1L11.24,7.448l-.009,0a2.043,2.043,0,0,0,.237-.926V4.671s0-.638-.295-.844a1.353,1.353,0,0,0-.977-.112A1.491,1.491,0,0,1,10.618,2.845Z" fill="#007dc4"/>
      <path id="Path_26" data-name="Path 26" d="M13.1,9.488a3.53,3.53,0,0,0,.948-.766L11.24,7.448A2.11,2.11,0,0,1,9.36,8.591H8.548a2.11,2.11,0,0,1-1.88-1.143L3.859,8.722a5.216,5.216,0,0,0,3.625,1.533h7.009Z" fill="#34c1d6"/>
      <path id="Path_27" data-name="Path 27" d="M14.049,8.722a5.216,5.216,0,0,1-3.625,1.533H7.484A5.217,5.217,0,0,1,3.859,8.722L1.012,10.014C2.2,11.225,4.882,11.92,6.42,11.92h5.068c1.537,0,4.216-.695,5.408-1.905Z" fill="#2152a3"/>
      <path id="Path_28" data-name="Path 28" d="M14.5.393a2.135,2.135,0,0,0,.581,1.254,2.2,2.2,0,0,0,1.271.573,2.439,2.439,0,0,0-1.271.573A2.283,2.283,0,0,0,14.5,4.048a2.226,2.226,0,0,0-.581-1.254,2.361,2.361,0,0,0-1.271-.573,2.233,2.233,0,0,0,1.271-.573A2.307,2.307,0,0,0,14.5.393Z" fill="#fff100" fill-rule="evenodd"/>
      <path id="Path_29" data-name="Path 29" d="M3.426,7.245h.016V4.477H.4c.013.115.014.2.014.2V8.731a1.838,1.838,0,0,0,.6,1.281L3.859,8.722h0a1.727,1.727,0,0,1-.435-1.1Z" fill="#00adee"/>
      <path id="Path_30" data-name="Path 30" d="M6.44,4.671s0-.082.013-.194H3.411V7.241h.015V7.62a1.732,1.732,0,0,0,.435,1.1L6.667,7.448l.009,0a2.043,2.043,0,0,1-.237-.926V4.671Z" fill="#007dc4"/>
      <path id="Path_31" data-name="Path 31" d="M3.426,7.114,1.91,5.8.4,4.477H6.455L4.94,5.8Z" fill="#34c1d6"/>
    </g>
  </g>
  <g id="Group-5" data-name="Group" transform="translate(137)">
    <path id="Rectangle-path-3" data-name="Rectangle-path" d="M1.555,0H4.41V24.42H1.555Z" fill="#ed223d"/>
    <path id="Rectangle-path-4" data-name="Rectangle-path" d="M4.41,0H7.265V24.42H4.41Z" fill="#a90f2d"/>
    <path id="Shape-43" data-name="Shape" d="M4.425,2.637,2.99,1.319,1.555,0H7.3L5.86,1.319Z" fill="#dc6671"/>
    <g id="Shape-44" data-name="Shape" transform="translate(0 12.5)">
      <path id="Path_32" data-name="Path 32" d="M4.394,3.248a4.2,4.2,0,0,0-.538-.585A3.2,3.2,0,0,0,2.35,2.181a1.84,1.84,0,0,0-1.631.654,1.538,1.538,0,0,0-.4.87,1.22,1.22,0,0,1,.926.112c.279.206.279.844.279.844V11.92h2.87Z" fill="#00adee"/>
      <path id="Path_33" data-name="Path 33" d="M4.394,3.248a4.243,4.243,0,0,1,.539-.585,3.2,3.2,0,0,1,1.506-.482,1.84,1.84,0,0,1,1.631.654,1.538,1.538,0,0,1,.4.87,1.22,1.22,0,0,0-.925.112c-.279.206-.279.844-.279.844V11.92H4.394Z" fill="#007dc4"/>
      <path id="Path_34" data-name="Path 34" d="M4.394.381a2.2,2.2,0,0,0,.55,1.254,2.031,2.031,0,0,0,1.2.573,2.247,2.247,0,0,0-1.2.573,2.35,2.35,0,0,0-.55,1.254,2.291,2.291,0,0,0-.55-1.254,2.175,2.175,0,0,0-1.2-.573,2.057,2.057,0,0,0,1.2-.573A2.375,2.375,0,0,0,4.394.381Z" fill="#fff100" fill-rule="evenodd"/>
    </g>
    <path id="Shape-45" data-name="Shape" d="M4.394,21.782,5.829,23.1,7.265,24.42H1.524L2.959,23.1Z" fill="#2152a3"/>
  </g>
  <g id="Group-6" data-name="Group" transform="translate(149)">
    <path id="Shape-46" data-name="Shape" d="M14.283,14.674,8.769,0H6.116L11.63,14.674Z" fill="#ed223d"/>
    <path id="Shape-47" data-name="Shape" d="M16.935,14.674,11.421,0H8.769l5.514,14.674Z" fill="#a90f2d"/>
    <path id="Shape-48" data-name="Shape" d="M11.63,14.674l3.662,9.745,2.325-.873-3.334-8.871Z" fill="#00adee"/>
    <path id="Shape-49" data-name="Shape" d="M14.283,14.674l3.334,8.871,2.324-.873-3.005-8Z" fill="#007dc4"/>
    <g id="Group_1" data-name="Group 1">
      <path id="Rectangle-path-5" data-name="Rectangle-path" d="M1.382,0H4.356V24.42H1.382Z" fill="#ed223d"/>
      <path id="Rectangle-path-6" data-name="Rectangle-path" d="M4.356,0H7.33V24.42H4.356Z" fill="#a90f2d"/>
      <g id="Shape-50" data-name="Shape" transform="translate(0 12.5)">
        <path id="Path_35" data-name="Path 35" d="M4.34,3.248a4.314,4.314,0,0,0-.561-.585A3.427,3.427,0,0,0,2.21,2.181a1.963,1.963,0,0,0-1.7.654A1.506,1.506,0,0,0,.1,3.7a1.319,1.319,0,0,1,.964.112c.291.206.291.844.291.844V11.92H4.34Z" fill="#00adee"/>
        <path id="Path_36" data-name="Path 36" d="M4.34,3.248A4.267,4.267,0,0,1,4.9,2.663,3.427,3.427,0,0,1,6.47,2.181a1.963,1.963,0,0,1,1.7.654,1.506,1.506,0,0,1,.416.87,1.319,1.319,0,0,0-.964.112c-.291.206-.291.844-.291.844V11.92H4.34Z" fill="#007dc4"/>
        <path id="Path_37" data-name="Path 37" d="M4.34.381a2.149,2.149,0,0,0,.573,1.254,2.16,2.16,0,0,0,1.254.573,2.39,2.39,0,0,0-1.254.573A2.3,2.3,0,0,0,4.34,4.036a2.241,2.241,0,0,0-.573-1.254,2.314,2.314,0,0,0-1.254-.573,2.188,2.188,0,0,0,1.254-.573A2.323,2.323,0,0,0,4.34.381Z" fill="#fff100" fill-rule="evenodd"/>
      </g>
      <path id="Shape-51" data-name="Shape" d="M4.34,21.782l1.5,1.319L7.33,24.42H1.35l1.5-1.319Z" fill="#2152a3"/>
    </g>
    <path id="Rectangle-path-7" data-name="Rectangle-path" d="M17.392,0h2.974V24.42H17.392Z" fill="#ed223d"/>
    <path id="Rectangle-path-8" data-name="Rectangle-path" d="M20.366,0h2.974V24.42H20.366Z" fill="#a90f2d"/>
    <path id="Shape-52" data-name="Shape" d="M20.382,2.637l-1.5-1.318L17.392,0h5.98l-1.5,1.319Z" fill="#dc6671"/>
    <path id="Shape-53" data-name="Shape" d="M20.35,21.782,21.845,23.1l1.5,1.319H17.36L18.855,23.1Z" fill="#0073bc"/>
    <path id="Shape-54" data-name="Shape" d="M20.35,15.748a4.267,4.267,0,0,0-.561-.585,3.427,3.427,0,0,0-1.569-.482,1.963,1.963,0,0,0-1.7.654,1.506,1.506,0,0,0-.416.87,1.319,1.319,0,0,1,.964.113c.291.206.291.844.291.844V24.42h2.99Z" fill="#00adee"/>
    <path id="Shape-55" data-name="Shape" d="M20.35,15.748a4.267,4.267,0,0,1,.561-.585,3.427,3.427,0,0,1,1.569-.482,1.963,1.963,0,0,1,1.7.654,1.506,1.506,0,0,1,.416.87,1.319,1.319,0,0,0-.964.113c-.291.206-.291.844-.291.844V24.42H20.35Z" fill="#007dc4"/>
    <path id="Shape-56" data-name="Shape" d="M20.35,12.881a1.976,1.976,0,0,0,1.827,1.827,2.39,2.39,0,0,0-1.254.573,2.3,2.3,0,0,0-.573,1.254,2.241,2.241,0,0,0-.573-1.254,2.314,2.314,0,0,0-1.254-.573,2.188,2.188,0,0,0,1.254-.573A2.323,2.323,0,0,0,20.35,12.881Z" fill="#fff100" fill-rule="evenodd"/>
    <path id="Shape-57" data-name="Shape" d="M20.351,22.851l2.99,1.569H15.291l2.069-1.569Z" fill="#2152a3"/>
    <path id="Shape-58" data-name="Shape" d="M4.356,1.645,7.33,3.29,9.376,1.645Z" fill="#7b2232"/>
    <g id="Shape-59" data-name="Shape" transform="translate(0.781)">
      <path id="Path_38" data-name="Path 38" d="M.6,0,3.575,1.645h5.02L10.64,0Z" fill="#dc6671"/>
    </g>
  </g>
  <g id="Group-7" data-name="Group">
    <path id="Rectangle-path-9" data-name="Rectangle-path" d="M12.477,9.535h3.046V24.42H12.477Z" fill="#ed223d"/>
    <path id="Rectangle-path-10" data-name="Rectangle-path" d="M15.522,9.535h3.046V24.42H15.522Z" fill="#a90f2d"/>
    <path id="Shape-60" data-name="Shape" d="M7.607,4.472,4.77,3.2a1.714,1.714,0,0,0-.439,1.1V18.087H7.377V5.409a2.013,2.013,0,0,1,.24-.94Z" fill="#a90f2d"/>
    <path id="Shape-61" data-name="Shape" d="M4.769,3.2,1.9,1.906a1.834,1.834,0,0,0-.61,1.281v14.9H4.33V4.3a1.717,1.717,0,0,1,.44-1.1Z" fill="#ed223d"/>
    <path id="Shape-62" data-name="Shape" d="M10.05,9.535V11.18h5.473l3.046-1.645Z" fill="#dc6671"/>
    <path id="Shape-63" data-name="Shape" d="M10.05,11.18v1.645h2.427l3.046-1.645Z" fill="#7b2232"/>
    <path id="Shape-64" data-name="Shape" d="M11.535,11.18,10.793,12l-.743.822V9.535l.743.822Z" fill="#a90f2d"/>
    <path id="Shape-65" data-name="Shape" d="M15.522,15.748a4.313,4.313,0,0,0-.574-.585,3.568,3.568,0,0,0-1.606-.482,2.04,2.04,0,0,0-1.739.654,1.488,1.488,0,0,0-.426.87,1.38,1.38,0,0,1,.987.113c.3.206.3.844.3.844V24.42h3.062Z" fill="#00adee"/>
    <path id="Shape-66" data-name="Shape" d="M15.522,15.748a4.313,4.313,0,0,1,.574-.585,3.568,3.568,0,0,1,1.606-.482,2.04,2.04,0,0,1,1.739.654,1.488,1.488,0,0,1,.426.87,1.38,1.38,0,0,0-.987.113c-.3.206-.3.844-.3.844V24.42H15.522Z" fill="#007dc4"/>
    <path id="Shape-67" data-name="Shape" d="M4.33,20.12v-.375h.016V15.762a4.313,4.313,0,0,0-.574-.585A3.574,3.574,0,0,0,2.166,14.7a2.04,2.04,0,0,0-1.739.654,1.49,1.49,0,0,0-.426.87,1.38,1.38,0,0,1,.987.112c.3.206.3.844.3.844v4.056a1.83,1.83,0,0,0,.61,1.281l2.874-1.291h0A1.715,1.715,0,0,1,4.33,20.12Z" fill="#00adee"/>
    <path id="Shape-68" data-name="Shape" d="M8.237,15.345A2.038,2.038,0,0,0,6.5,14.691a3.574,3.574,0,0,0-1.606.482,4.268,4.268,0,0,0-.574.585v3.983h.015v.379a1.722,1.722,0,0,0,.439,1.1l2.837-1.274.009,0a2.026,2.026,0,0,1-.239-.926V17.171s0-.637.3-.844a1.38,1.38,0,0,1,.987-.112A1.49,1.49,0,0,0,8.237,15.345Z" fill="#007dc4"/>
    <path id="Shape-69" data-name="Shape" d="M12.461,21.091H9.507a2.135,2.135,0,0,1-1.9-1.143L4.769,21.222a5.3,5.3,0,0,0,3.663,1.533h7.082Z" fill="#34c1d6"/>
    <path id="Shape-70" data-name="Shape" d="M8.432,22.755a5.3,5.3,0,0,1-3.663-1.533L1.892,22.514C3.1,23.725,5.8,24.42,7.357,24.42H18.568l-3.054-1.664H8.432Z" fill="#2152a3"/>
    <path id="Shape-71" data-name="Shape" d="M18.568,1.664H8.432A5.3,5.3,0,0,0,4.769,3.2L7.607,4.471a2.135,2.135,0,0,1,1.9-1.143h9.061Z" fill="#7b2232"/>
    <path id="Shape-72" data-name="Shape" d="M18.568,0H7.357C5.8,0,3.1.695,1.893,1.905L4.77,3.2A5.294,5.294,0,0,1,8.432,1.664H18.568Z" fill="#dc6671"/>
    <path id="Shape-73" data-name="Shape" d="M17.065,1.664l.752-.832L18.568,0V3.329L17.817,2.5Z" fill="#a90f2d"/>
    <path id="Shape-74" data-name="Shape" d="M4.319,12.893a2.123,2.123,0,0,0,.587,1.254,2.241,2.241,0,0,0,1.284.573,2.479,2.479,0,0,0-1.284.573,2.271,2.271,0,0,0-.587,1.254,2.214,2.214,0,0,0-.587-1.254,2.4,2.4,0,0,0-1.284-.573,2.269,2.269,0,0,0,1.284-.573A2.3,2.3,0,0,0,4.319,12.893Z" fill="#fff100" fill-rule="evenodd"/>
    <path id="Shape-75" data-name="Shape" d="M15.522,12.881a2.123,2.123,0,0,0,.587,1.254,2.241,2.241,0,0,0,1.284.573,2.479,2.479,0,0,0-1.284.573,2.271,2.271,0,0,0-.587,1.254,2.214,2.214,0,0,0-.587-1.254,2.4,2.4,0,0,0-1.284-.573,2.269,2.269,0,0,0,1.284-.573A2.3,2.3,0,0,0,15.522,12.881Z" fill="#fff100" fill-rule="evenodd"/>
  </g>
  <g id="Group-8" data-name="Group" transform="translate(176)">
    <path id="Rectangle-path-11" data-name="Rectangle-path" d="M12.728,9.535H15.8V24.42H12.728Z" fill="#ed223d"/>
    <path id="Rectangle-path-12" data-name="Rectangle-path" d="M15.8,9.535h3.075V24.42H15.8Z" fill="#a90f2d"/>
    <path id="Shape-76" data-name="Shape" d="M7.812,4.472,4.948,3.2A1.706,1.706,0,0,0,4.5,4.3V18.087H7.579V5.409a2,2,0,0,1,.242-.94Z" fill="#a90f2d"/>
    <path id="Shape-77" data-name="Shape" d="M4.947,3.2l-2.9-1.291A1.823,1.823,0,0,0,1.43,3.188v14.9H4.5V4.3a1.708,1.708,0,0,1,.444-1.1Z" fill="#ed223d"/>
    <path id="Shape-78" data-name="Shape" d="M10.278,9.535V11.18H15.8l3.075-1.645Z" fill="#dc6671"/>
    <path id="Shape-79" data-name="Shape" d="M10.278,11.18v1.645h2.451L15.8,11.18Z" fill="#7b2232"/>
    <path id="Shape-80" data-name="Shape" d="M11.778,11.18l-.75.823-.75.822V9.535l.75.822Z" fill="#a90f2d"/>
    <path id="Shape-81" data-name="Shape" d="M15.8,15.748a4.333,4.333,0,0,0-.58-.585,3.626,3.626,0,0,0-1.622-.482,2.072,2.072,0,0,0-1.756.654,1.481,1.481,0,0,0-.431.87,1.406,1.406,0,0,1,1,.113c.3.206.3.844.3.844V24.42H15.8Z" fill="#00adee"/>
    <path id="Shape-82" data-name="Shape" d="M15.8,15.748a4.333,4.333,0,0,1,.58-.585,3.626,3.626,0,0,1,1.622-.482,2.072,2.072,0,0,1,1.756.654,1.481,1.481,0,0,1,.431.87,1.406,1.406,0,0,0-1,.113c-.3.206-.3.844-.3.844V24.42H15.8Z" fill="#007dc4"/>
    <path id="Shape-83" data-name="Shape" d="M4.5,20.12v-.375h.016V15.762a4.381,4.381,0,0,0-.58-.585A3.626,3.626,0,0,0,2.319,14.7a2.072,2.072,0,0,0-1.756.654,1.481,1.481,0,0,0-.43.87,1.406,1.406,0,0,1,1,.112c.3.206.3.844.3.844v4.056a1.823,1.823,0,0,0,.616,1.281l2.9-1.291h0A1.7,1.7,0,0,1,4.5,20.12Z" fill="#00adee"/>
    <path id="Shape-84" data-name="Shape" d="M8.448,15.345a2.07,2.07,0,0,0-1.756-.654,3.633,3.633,0,0,0-1.622.482,4.288,4.288,0,0,0-.58.585v3.983h.015v.379a1.713,1.713,0,0,0,.443,1.1l2.864-1.274.009,0a2,2,0,0,1-.241-.926V17.171s0-.637.3-.844a1.406,1.406,0,0,1,1-.112A1.481,1.481,0,0,0,8.448,15.345Z" fill="#007dc4"/>
    <path id="Shape-85" data-name="Shape" d="M12.713,21.091H9.731a2.158,2.158,0,0,1-1.918-1.143L4.947,21.222a5.375,5.375,0,0,0,3.7,1.533H15.8Z" fill="#34c1d6"/>
    <path id="Shape-86" data-name="Shape" d="M8.645,22.755a5.377,5.377,0,0,1-3.7-1.533l-2.9,1.292c1.215,1.211,3.949,1.905,5.517,1.905H18.878L15.8,22.755H8.645Z" fill="#2152a3"/>
    <path id="Shape-87" data-name="Shape" d="M18.879,1.664H8.646A5.377,5.377,0,0,0,4.947,3.2L7.813,4.471A2.158,2.158,0,0,1,9.731,3.328h9.148Z" fill="#7b2232"/>
    <path id="Shape-88" data-name="Shape" d="M18.879,0H7.56c-1.569,0-4.3.695-5.517,1.905L4.947,3.2a5.375,5.375,0,0,1,3.7-1.533H18.879Z" fill="#dc6671"/>
    <path id="Shape-89" data-name="Shape" d="M17.361,1.664,18.12.832,18.879,0V3.329L18.12,2.5Z" fill="#a90f2d"/>
    <path id="Shape-90" data-name="Shape" d="M4.492,12.893a2.113,2.113,0,0,0,.593,1.254,2.274,2.274,0,0,0,1.3.573,2.515,2.515,0,0,0-1.3.573,2.26,2.26,0,0,0-.593,1.254A2.2,2.2,0,0,0,3.9,15.294a2.435,2.435,0,0,0-1.3-.573,2.3,2.3,0,0,0,1.3-.573A2.284,2.284,0,0,0,4.492,12.893Z" fill="#fff100" fill-rule="evenodd"/>
    <path id="Shape-91" data-name="Shape" d="M15.8,12.881a2.113,2.113,0,0,0,.593,1.254,2.274,2.274,0,0,0,1.3.573,2.515,2.515,0,0,0-1.3.573,2.26,2.26,0,0,0-.593,1.254,2.2,2.2,0,0,0-.593-1.254,2.435,2.435,0,0,0-1.3-.573,2.3,2.3,0,0,0,1.3-.573A2.284,2.284,0,0,0,15.8,12.881Z" fill="#fff100" fill-rule="evenodd"/>
  </g>
  <g id="Group-9" data-name="Group" transform="translate(104)">
    <path id="Rectangle-path-13" data-name="Rectangle-path" d="M12.982,0h3.046V21.18H12.982Z" fill="#ed223d"/>
    <path id="Rectangle-path-14" data-name="Rectangle-path" d="M16.027,0h3.046V21.18H16.027Z" fill="#a90f2d"/>
    <path id="Shape-92" data-name="Shape" d="M16.043,2.637l-1.53-1.318L12.982,0H19.1l-1.53,1.319Z" fill="#dc6671"/>
    <path id="Rectangle-path-15" data-name="Rectangle-path" d="M1.81,0H4.855V21.18H1.81Z" fill="#ed223d"/>
    <path id="Rectangle-path-16" data-name="Rectangle-path" d="M4.855,0H7.9V21.18H4.855Z" fill="#a90f2d"/>
    <path id="Shape-93" data-name="Shape" d="M4.871,2.637,3.34,1.319,1.81,0H7.933L6.4,1.319Z" fill="#dc6671"/>
    <path id="Rectangle-path-17" data-name="Rectangle-path" d="M24.179,0h3.046V21.18H24.179Z" fill="#ed223d"/>
    <path id="Rectangle-path-18" data-name="Rectangle-path" d="M27.225,0H30.27V21.18H27.225Z" fill="#a90f2d"/>
    <path id="Shape-94" data-name="Shape" d="M27.241,2.637,25.71,1.319,24.179,0H30.3L28.771,1.319Z" fill="#dc6671"/>
    <g id="Shape-95" data-name="Shape" transform="translate(0 12.5)">
      <path id="Path_39" data-name="Path 39" d="M4.867,3.248a4.361,4.361,0,0,0-.574-.585,3.568,3.568,0,0,0-1.606-.482,2.04,2.04,0,0,0-1.739.654,1.488,1.488,0,0,0-.426.87,1.38,1.38,0,0,1,.987.112c.3.206.3.844.3.844V8.68H4.867Z" fill="#00adee"/>
      <path id="Path_40" data-name="Path 40" d="M4.838,3.248a4.361,4.361,0,0,1,.574-.585,3.568,3.568,0,0,1,1.606-.482,2.04,2.04,0,0,1,1.739.654,1.488,1.488,0,0,1,.426.87,1.38,1.38,0,0,0-.987.112c-.3.206-.3.844-.3.844V8.68H4.838Z" fill="#007dc4"/>
      <path id="Path_41" data-name="Path 41" d="M4.838.381a2.123,2.123,0,0,0,.587,1.254,2.241,2.241,0,0,0,1.284.573,2.479,2.479,0,0,0-1.284.573,2.271,2.271,0,0,0-.587,1.254,2.214,2.214,0,0,0-.587-1.254,2.4,2.4,0,0,0-1.284-.573,2.269,2.269,0,0,0,1.284-.573A2.3,2.3,0,0,0,4.838.381Z" fill="#fff100" fill-rule="evenodd"/>
      <g id="Group_2" data-name="Group 2" transform="translate(1.6)">
        <path id="Path_42" data-name="Path 42" d="M14.444,1.552l1.523,1.312L17.49,4.176H11.4l1.523-1.312Z" fill="#7b2232"/>
        <path id="Path_43" data-name="Path 43" d="M14.426,7.627V7.252H14.41V3.27a4.313,4.313,0,0,1,.574-.585A3.568,3.568,0,0,1,16.591,2.2a2.04,2.04,0,0,1,1.739.654,1.488,1.488,0,0,1,.426.87,1.38,1.38,0,0,0-.987.112c-.3.206-.3.844-.3.844V8.738a1.83,1.83,0,0,1-.61,1.281L13.988,8.729h0A1.717,1.717,0,0,0,14.426,7.627Z" fill="#007dc4"/>
        <path id="Path_44" data-name="Path 44" d="M10.521,2.852A2.038,2.038,0,0,1,12.26,2.2a3.574,3.574,0,0,1,1.606.482,4.268,4.268,0,0,1,.574.585V7.248h-.015v.379a1.722,1.722,0,0,1-.439,1.1L11.15,7.455l-.009,0a2.026,2.026,0,0,0,.239-.926V4.678s0-.637-.3-.844a1.38,1.38,0,0,0-.987-.112A1.484,1.484,0,0,1,10.521,2.852Z" fill="#007dc4"/>
        <path id="Path_45" data-name="Path 45" d="M13.03,9.5a3.56,3.56,0,0,0,.958-.766L11.15,7.455A2.135,2.135,0,0,1,9.25,8.6H8.429a2.135,2.135,0,0,1-1.9-1.143L3.69,8.729a5.3,5.3,0,0,0,3.663,1.533h7.082Z" fill="#34c1d6"/>
        <path id="Path_46" data-name="Path 46" d="M13.988,8.729a5.3,5.3,0,0,1-3.663,1.533H7.354A5.3,5.3,0,0,1,3.69,8.729L.814,10.021c1.2,1.211,3.911,1.905,5.465,1.905H11.4c1.554,0,4.261-.695,5.465-1.905Z" fill="#2152a3"/>
        <path id="Path_47" data-name="Path 47" d="M14.444.4a2.123,2.123,0,0,0,.587,1.254,2.241,2.241,0,0,0,1.284.573,2.479,2.479,0,0,0-1.284.573,2.271,2.271,0,0,0-.587,1.254A2.214,2.214,0,0,0,13.857,2.8a2.4,2.4,0,0,0-1.284-.573,2.269,2.269,0,0,0,1.284-.573A2.3,2.3,0,0,0,14.444.4Z" fill="#fff100" fill-rule="evenodd"/>
        <path id="Path_48" data-name="Path 48" d="M3.252,7.252h.016V4.484H.192c.014.115.014.2.014.2V8.739a1.83,1.83,0,0,0,.61,1.281L3.69,8.73h0a1.72,1.72,0,0,1-.439-1.1Z" fill="#00adee"/>
        <path id="Path_49" data-name="Path 49" d="M6.3,4.678s0-.082.014-.194H3.238V7.248h.015v.379a1.722,1.722,0,0,0,.439,1.1L6.529,7.455l.009,0A2.026,2.026,0,0,1,6.3,6.531V4.678Z" fill="#007dc4"/>
      </g>
    </g>
    <path id="Shape-96" data-name="Shape" d="M27.212,15.748a4.361,4.361,0,0,1,.574-.585,3.568,3.568,0,0,1,1.606-.482,2.04,2.04,0,0,1,1.739.654,1.488,1.488,0,0,1,.426.87,1.38,1.38,0,0,0-.987.113c-.3.206-.3.844-.3.844V21.18H27.212Z" fill="#00adee"/>
    <path id="Shape-97" data-name="Shape" d="M27.241,15.748a4.361,4.361,0,0,0-.574-.585,3.568,3.568,0,0,0-1.606-.482,2.04,2.04,0,0,0-1.739.654,1.488,1.488,0,0,0-.426.87,1.38,1.38,0,0,1,.987.113c.3.206.3.844.3.844V21.18h3.062Z" fill="#007dc4"/>
    <path id="Shape-98" data-name="Shape" d="M27.241,12.881a2.123,2.123,0,0,1-.587,1.254,2.241,2.241,0,0,1-1.284.573,2.479,2.479,0,0,1,1.284.573,2.271,2.271,0,0,1,.587,1.254,2.214,2.214,0,0,1,.587-1.254,2.4,2.4,0,0,1,1.284-.573,2.269,2.269,0,0,1-1.284-.573A2.3,2.3,0,0,1,27.241,12.881Z" fill="#fff100" fill-rule="evenodd"/>
    <path id="Shape-99" data-name="Shape" d="M19.959,15.352A2.038,2.038,0,0,0,18.22,14.7a3.574,3.574,0,0,0-1.606.482,4.269,4.269,0,0,0-.574.585v3.983h.015v.379a1.722,1.722,0,0,0,.439,1.1l2.837-1.274.009,0a2.026,2.026,0,0,1-.239-.926V17.178s0-.638.3-.844a1.38,1.38,0,0,1,.987-.113A1.49,1.49,0,0,0,19.959,15.352Z" fill="#00adee"/>
    <path id="Shape-100" data-name="Shape" d="M17.449,22a3.56,3.56,0,0,1-.958-.766l2.838-1.274a2.135,2.135,0,0,0,1.9,1.143h.821a2.135,2.135,0,0,0,1.9-1.143l2.838,1.274a5.3,5.3,0,0,1-3.663,1.533H16.043Z" fill="#34c1d6"/>
    <path id="Shape-101" data-name="Shape" d="M16.491,21.229a5.3,5.3,0,0,0,3.663,1.533h2.971a5.3,5.3,0,0,0,3.663-1.533l2.877,1.292c-1.2,1.211-3.911,1.905-5.465,1.905H19.079c-1.554,0-4.261-.695-5.465-1.905Z" fill="#2152a3"/>
    <path id="Shape-102" data-name="Shape" d="M16.035,12.9a2.123,2.123,0,0,1-.587,1.254,2.241,2.241,0,0,1-1.284.573,2.479,2.479,0,0,1,1.284.573,2.271,2.271,0,0,1,.587,1.254,2.214,2.214,0,0,1,.587-1.254,2.4,2.4,0,0,1,1.284-.573,2.269,2.269,0,0,1-1.284-.573A2.3,2.3,0,0,1,16.035,12.9Z" fill="#fff100" fill-rule="evenodd"/>
    <path id="Shape-103" data-name="Shape" d="M27.227,19.752h-.016V16.984h3.076c-.014.115-.014.2-.014.2v4.056a1.83,1.83,0,0,1-.61,1.281L26.789,21.23h0a1.717,1.717,0,0,0,.44-1.1Z" fill="#00adee"/>
    <path id="Shape-104" data-name="Shape" d="M24.18,17.178s0-.082-.014-.194h3.075v2.764h-.015v.379a1.722,1.722,0,0,1-.439,1.1L23.95,19.955l-.009,0a2.026,2.026,0,0,0,.239-.926V17.178Z" fill="#007dc4"/>
  </g>
</svg>
