<svg xmlns="http://www.w3.org/2000/svg" width="20.001" height="12" viewBox="0 0 20.001 12">
  <path id="Path_2675" data-name="Path 2675" d="M21.949,11.684a10.675,10.675,0,0,0-2-3.222l.962-.962A1,1,0,1,0,19.5,6.086L18.492,7.094A10.221,10.221,0,0,0,13,5.054V4a1,1,0,0,0-2,0V5.054a10.221,10.221,0,0,0-5.492,2.04L4.5,6.086A1,1,0,0,0,3.086,7.5l.962.962a10.675,10.675,0,0,0-2,3.222,1,1,0,1,0,1.9.636A8.347,8.347,0,0,1,12,7a8.345,8.345,0,0,1,8.051,5.316,1,1,0,0,0,1.9-.633ZM12,9a3,3,0,1,0,3,3,3,3,0,0,0-3-3Zm0,4a1,1,0,1,1,1-1,1,1,0,0,1-1,1Z" transform="translate(-1.999 -3)"/>
</svg>
